<?xml version="1.0" encoding="UTF-8" standalone="no"?>
<!-- Generator: Adobe Illustrator 16.0.0, SVG Export Plug-In . SVG Version: 6.00 Build 0)  -->

<svg
   xmlns:dc="http://purl.org/dc/elements/1.1/"
   xmlns:cc="http://creativecommons.org/ns#"
   xmlns:rdf="http://www.w3.org/1999/02/22-rdf-syntax-ns#"
   xmlns:svg="http://www.w3.org/2000/svg"
   xmlns="http://www.w3.org/2000/svg"
   xmlns:sodipodi="http://sodipodi.sourceforge.net/DTD/sodipodi-0.dtd"
   xmlns:inkscape="http://www.inkscape.org/namespaces/inkscape"
   version="1.1"
   id="Capa_1"
   x="0px"
   y="0px"
   width="841.89px"
   height="595.28px"
   viewBox="0 0 841.89 595.28"
   enable-background="new 0 0 841.89 595.28"
   xml:space="preserve"
   sodipodi:docname="logo.svg"
   inkscape:version="0.92.4 (unknown)"><metadata
   id="metadata3907"><rdf:RDF><cc:Work
       rdf:about=""><dc:format>image/svg+xml</dc:format><dc:type
         rdf:resource="http://purl.org/dc/dcmitype/StillImage" /><dc:title></dc:title></cc:Work></rdf:RDF></metadata><defs
   id="defs3905" /><sodipodi:namedview
   pagecolor="#ffffff"
   bordercolor="#666666"
   borderopacity="1"
   objecttolerance="10"
   gridtolerance="10"
   guidetolerance="10"
   inkscape:pageopacity="0"
   inkscape:pageshadow="2"
   inkscape:window-width="1366"
   inkscape:window-height="695"
   id="namedview3903"
   showgrid="false"
   inkscape:zoom="0.87353846"
   inkscape:cx="420.94501"
   inkscape:cy="251.84924"
   inkscape:window-x="0"
   inkscape:window-y="0"
   inkscape:window-maximized="1"
   inkscape:current-layer="Capa_1" />
<path
   d="m 127.78715,235.91144 -4.4774,32.49549 c -5.87913,-3.32116 -12.07499,-5.94146 -18.54814,-7.86852 -6.488408,-1.91053 -12.498558,-2.88233 -18.039338,-2.88233 -5.62474,0 -9.97875,1.00106 -13.04552,3.00444 -3.06676,2.00338 -4.60841,4.83992 -4.60841,8.5007 0,4.68474 6.27217,8.77545 18.80126,12.26706 l 9.33894,2.68135 c 14.409088,4.26116 24.433628,9.47759 30.067268,15.65055 5.62473,6.17932 8.4371,14.54901 8.4371,25.1116 0,14.13943 -5.52425,25.32021 -16.55875,33.54234 -11.04976,8.2145 -26.337788,12.32812 -45.864088,12.32812 -8.18398,0 -16.26747,-0.63854 -24.24156,-1.9258 -7.96774,-1.27962 -15.966,-3.19014 -23.9808,-5.74938 l 2.94338,-34.41366 c 6.47188,3.28301 13.21469,5.80918 20.20427,7.58233 3.49796,0.83951 6.93488,1.47169 10.2942,1.89526 3.37459,0.41594 7.02011,0.63218 10.94165,0.63218 6.566,0 11.64378,-0.89421 15.22697,-2.68135 3.40512,-1.88127 5.11594,-4.64531 5.11594,-8.31372 0,-5.27748 -6.90435,-10.04108 -20.72833,-14.30987 l -8.05932,-2.42696 c -13.97788,-4.59188 -23.76456,-9.73198 -29.35877,-15.38852 -5.57894,-5.67052 -8.36841,-13.09894 -8.36841,-22.29923 0,-14.05547 5.53315,-24.98186 16.62871,-32.77279 11.08029,-7.78966 26.68505,-11.6883 46.81172,-11.6883 3.49797,0 6.81914,0.12338 9.97876,0.38541 3.15961,0.24677 6.564728,0.71613 10.233138,1.40301 7.34065,1.2033 14.2908,2.94465 20.85553,5.24059 z"
   id="path3830"
   inkscape:connector-curvature="0"
   style="fill:#205695;stroke-width:1.27198863" />
<rect
   x="160.79018"
   y="232.45924"
   width="46.17955"
   height="134.83206"
   id="rect3832"
   style="fill:#205695;stroke-width:1.27198863" />




<rect
   x="160.76727"
   y="170.67622"
   width="46.225338"
   height="46.234241"
   id="rect3842"
   style="fill:#cd7d37;stroke-width:1.27198863" />
<path
   d="m 277.67702,186.6346 v 45.82466 h 33.01065 v 33.25742 h -33.01065 v 46.44157 c 0,10.05507 1.61797,17.11334 4.87045,21.16717 3.23593,4.05383 26.09103,4.62368 28.14147,4.03093 l 0.7632,29.95152 c -0.68561,0.16154 -2.35064,0.47699 -4.98493,0.95526 -2.65082,0.46173 -5.80281,0.99342 -9.46232,1.58744 -2.3888,0.2544 -4.7,0.46173 -6.91199,0.63981 -2.21962,0.16154 -4.43797,0.25313 -6.64995,0.25313 -18.08514,0 -31.29983,-4.4685 -39.66061,-13.4233 -4.00677,-4.4227 -7.03537,-10.2942 -9.07691,-17.62976 -2.04918,-7.3203 -0.51643,-107.23119 -0.51643,-107.23119 v -31.09885 z"
   id="path3844"
   inkscape:connector-curvature="0"
   style="fill:#205695;stroke-width:1.27198863" />
<path
   d="m 322.19917,232.45926 h 48.72988 l 18.55577,84.79204 1.53275,8.83014 1.02522,10.24969 1.53402,-11.39702 c 0.16918,-1.10918 0.38541,-2.41169 0.63854,-3.90628 0.26203,-1.49586 0.50879,-2.75894 0.77082,-3.77653 L 415.96,232.45926 h 55.00206 l 20.21953,86.47233 1.52511,8.57575 c 0.16918,1.02522 0.38542,2.30484 0.64744,3.82996 0.2544,1.54165 0.37779,3.15835 0.37779,4.86917 l 1.15496,-12.28232 0.63981,-4.60714 19.44108,-86.85775 h 44.76891 L 518.68453,367.29133 H 465.9784 l -22.00031,-89.64722 c -0.43121,-1.8024 -0.85478,-4.31458 -1.27835,-7.56578 l -0.51643,-10.24079 -1.53402,11.90455 c -0.26075,2.91285 -0.55458,4.86917 -0.89293,5.90202 l -23.02554,89.64722 h -53.21365 z"
   id="path3846"
   inkscape:connector-curvature="0"
   style="fill:#205695;stroke-width:1.27198863" />
<path
   d="m 754.82159,171.30841 -2.82,31.34689 c -1.78842,-0.76956 -3.64552,-1.40301 -5.56368,-1.91944 -1.91943,-0.50752 -3.89864,-0.76319 -5.94909,-0.76319 -6.48078,0 -11.25074,1.95759 -14.32514,5.88804 -3.07439,3.92154 -4.59951,10.10086 -4.59951,18.53923 v 8.05932 h 32.22456 v 33.52072 H 721.56417 V 367.29133 H 676.02316 V 265.97998 h -28.27885 v -33.52072 h 28.27885 v -12.25179 c 0,-17.19856 4.40744,-30.15122 13.23759,-38.87579 8.82378,-8.72203 21.97615,-13.09131 39.46854,-13.09131 5.02308,0 9.67092,0.26203 13.93081,0.76955 4.27134,0.51134 8.3239,1.27326 12.16149,2.29849 z"
   id="path3848"
   inkscape:connector-curvature="0"
   style="fill:#205695;stroke-width:1.27198863" />
<path
   d="m 774.77146,232.45926 h 46.18082 v 134.83207 h -46.18082 z"
   id="path3850"
   inkscape:connector-curvature="0"
   style="fill:#205695;stroke-width:1.27198863" />






















<rect
   x="579.27319"
   y="170.67622"
   width="46.225338"
   height="46.234241"
   id="rect3896"
   style="fill:#cd7d37;stroke-width:1.27198863" />
<rect
   x="774.7486"
   y="170.67622"
   width="46.225338"
   height="46.234241"
   id="rect3898"
   style="fill:#cd7d37;stroke-width:1.27198863" />
<rect
   x="579.27319"
   y="232.45924"
   width="46.17955"
   height="134.83206"
   id="rect3900"
   style="fill:#205695;stroke-width:1.27198863" />
</svg>