<?xml version="1.0" encoding="utf-8"?>
<!-- Generator: Adobe Illustrator 19.2.1, SVG Export Plug-In . SVG Version: 6.00 Build 0)  -->
<svg version="1.1" id="layer" xmlns="http://www.w3.org/2000/svg" xmlns:xlink="http://www.w3.org/1999/xlink" x="0px" y="0px"
	 viewBox="0 0 652 652" style="enable-background:new 0 0 652 652;" xml:space="preserve">
<style type="text/css">
	.st0{fill:#E2021B;}
</style>
<path class="st0" d="M189.4,280.3h-31.7v97.8h31.7c29.6,0,47.2-14,47.2-48.9S219,280.3,189.4,280.3 M188.3,365.2h-15.6v-72.1h15.6
	c22.4,0,33,10.2,33,36.1C221.3,355,210.7,365.2,188.3,365.2 M603.8,280.3l-26.1,47.2l-26.3-47.2h-16.9l35.6,59.1v38.7h14.9v-38.7
	l35.6-59.1H603.8z M320.2,341.9c0,13.8-4.1,24.7-22.9,24.7c-19,0-23-10.9-23-24.7v-61.6h-15V341c0,21.5,8.1,38.6,38,38.6
	c29.8,0,38-17.1,38-38.6v-60.8h-15.1V341.9z M523.8,307.9c0-20.8-14.8-27.7-37.6-27.7h-39.7v97.8h14.9v-42.5H483l24.3,42.5h16.6
	l-26.1-43.2C513.7,332.4,523.8,325,523.8,307.9 M461.5,322.9v-29.8h24.6c12.9,0,22.4,2.4,22.4,14.8c0,12.4-9.5,14.9-22.9,14.9H461.5
	z M362.9,378.1h14.9v-42.5h39.3v-12.7h-39.3v-29.8H427v-12.9h-64.1V378.1z M66.3,263.7H51.2v16.6H20.7v23.1c0,21.5,8.1,38.6,38,38.6
	c29.8,0,38-17.1,38-38.6v-23.1H66.3V263.7z M81.7,293.1v11.1c0,13.8-4.1,24.7-22.9,24.7c-19,0-23.1-10.9-23.1-24.7v-11.1h15.4v16.6
	h15.1v-16.6H81.7z"/>
</svg>
